<svg width="512" height="512" viewBox="0 0 512 512" fill="none" xmlns="http://www.w3.org/2000/svg">
<rect width="512" height="512" fill="#003963"/>
<path d="M245.407 311.499C237.44 311.499 229.948 308.404 224.314 302.786C218.681 297.168 215.577 289.697 215.577 281.752C215.577 273.807 218.681 266.335 224.314 260.717C229.948 255.099 237.437 252.004 245.407 252.004H225.872C217.902 252.004 210.409 255.099 204.776 260.717C199.318 266.16 196.237 273.336 196.047 281C196.044 281.195 196.041 281.387 196.038 281.582C196.038 281.64 196.038 281.696 196.038 281.754C196.038 282.011 196.044 282.264 196.047 282.517C196.239 290.181 199.321 297.355 204.776 302.794C210.231 308.234 217.905 311.508 225.872 311.508L245.407 311.497V311.499Z" fill="url(#paint0_linear_611_6913)"/>
<path d="M261.149 252.015C269.116 252.015 276.609 255.111 282.242 260.729C287.875 266.346 290.98 273.818 290.98 281.763C290.98 289.708 287.875 297.18 282.242 302.797C276.609 308.415 269.119 311.511 261.149 311.511H280.684C288.654 311.511 296.147 308.415 301.78 302.797C307.238 297.355 310.32 290.178 310.509 282.515C310.512 282.32 310.515 282.128 310.518 281.933C310.518 281.874 310.518 281.819 310.518 281.76C310.518 281.504 310.512 281.251 310.509 280.997C310.317 273.334 307.235 266.16 301.78 260.72C296.144 255.1 288.651 252.007 280.684 252.007L261.149 252.018V252.015Z" fill="url(#paint1_linear_611_6913)"/>
<path d="M107.49 212.505V181.529H115.521L129.498 203.964H130.565V181.529H136.645V212.505H128.614L114.681 190.07H113.617V212.505H107.493H107.49Z" fill="white"/>
<path d="M157.615 213.036C154.539 213.036 151.906 212.602 149.718 211.731C147.529 210.862 145.888 209.651 144.794 208.103C143.699 206.556 143.152 204.777 143.152 202.772H149.187C149.187 203.716 149.497 204.557 150.12 205.295C150.74 206.032 151.672 206.614 152.914 207.043C154.156 207.472 155.725 207.686 157.618 207.686C160.25 207.686 162.165 207.346 163.363 206.667C164.561 205.988 165.161 205.044 165.161 203.836C165.161 202.745 164.725 201.912 163.852 201.336C162.978 200.76 161.565 200.295 159.614 199.941L153.224 198.792C151.242 198.469 149.556 197.951 148.166 197.244C146.776 196.537 145.726 195.599 145.014 194.435C144.305 193.271 143.948 191.863 143.948 190.209C143.948 188.439 144.45 186.86 145.455 185.474C146.46 184.088 147.948 182.996 149.913 182.2C151.881 181.404 154.223 181.006 156.948 181.006C159.907 181.006 162.442 181.44 164.558 182.311C166.671 183.183 168.271 184.399 169.351 185.961C170.431 187.526 170.97 189.296 170.97 191.27H164.979C164.979 190.357 164.67 189.522 164.047 188.77C163.427 188.018 162.517 187.428 161.317 186.999C160.119 186.571 158.662 186.359 156.945 186.359C154.609 186.359 152.878 186.699 151.753 187.378C150.628 188.057 150.067 189.001 150.067 190.209C150.067 191.211 150.474 191.994 151.287 192.553C152.099 193.113 153.439 193.572 155.304 193.926L160.94 194.9C163.366 195.284 165.334 195.86 166.841 196.626C168.349 197.394 169.46 198.36 170.169 199.524C170.878 200.69 171.235 202.082 171.235 203.705C171.235 205.565 170.724 207.193 169.706 208.593C168.684 209.994 167.146 211.088 165.091 211.867C163.034 212.649 160.544 213.039 157.615 213.039V213.036Z" fill="white"/>
<path d="M178.736 212.505V181.529H184.861V212.505H178.736Z" fill="white"/>
<path d="M208.511 213.036C205.404 213.036 202.557 212.365 199.969 211.023C197.381 209.682 195.318 207.794 193.78 205.358C192.242 202.925 191.471 200.144 191.471 197.018C191.471 193.892 192.234 191.111 193.758 188.678C195.282 186.245 197.353 184.357 199.969 183.013C202.587 181.671 205.463 181 208.601 181C211.174 181 213.578 181.473 215.811 182.417C218.044 183.361 219.923 184.644 221.447 186.267C222.972 187.89 224.027 189.674 224.621 191.62H218.097C217.179 190.086 215.892 188.861 214.237 187.948C212.578 187.035 210.703 186.576 208.601 186.576C206.498 186.576 204.703 187.01 203.031 187.882C201.359 188.753 200.036 189.978 199.059 191.553C198.082 193.132 197.593 194.952 197.593 197.018C197.593 199.084 198.073 200.904 199.037 202.483C199.997 204.061 201.315 205.286 202.987 206.154C204.659 207.026 206.498 207.46 208.511 207.46C210.404 207.46 212.112 207.107 213.636 206.399C215.161 205.692 216.35 204.754 217.21 203.591C218.067 202.424 218.497 201.149 218.497 199.763V198.702L220.85 200.648H209.357V196.266H224.845V212.507H220.186L219.786 208.702H219.521C218.812 209.498 217.916 210.213 216.836 210.848C215.755 211.483 214.505 212.006 213.087 212.418C211.666 212.83 210.141 213.036 208.517 213.036H208.511Z" fill="white"/>
<path d="M231.944 212.505V181.529H238.068V193.965H255.019V181.529H261.143V212.505H255.019V199.805H238.068V212.505H231.944Z" fill="white"/>
<path d="M278.417 212.505V187.414H267.502V181.529H295.413V187.414H284.498V212.505H278.417Z" fill="white"/>
<path d="M86.782 187.322C92.1614 187.322 96.5385 191.687 96.5385 197.052C96.5385 202.416 92.1614 206.781 86.782 206.781H79.496C74.1166 206.781 69.7395 202.416 69.7395 197.052C69.7395 191.687 74.1166 187.322 79.496 187.322H86.782ZM86.782 181.599H79.496C70.937 181.599 64 188.516 64 197.052C64 205.587 70.937 212.504 79.496 212.504H86.782C95.341 212.504 102.278 205.587 102.278 197.052C102.278 188.516 95.341 181.599 86.782 181.599Z" fill="white"/>
<path d="M428.255 232.518L413.047 302.72H410.224L392.132 232.518H370.972L352.925 302.72H350.102L334.475 232.518H314.725L318.912 250.598C309.856 239.563 296.094 232.518 280.682 232.518H225.869C204.879 232.518 186.952 245.579 179.805 263.994V232.518H160.477V305.968H157.09L91.617 232.518H66.0825V330.998H85.5509V257.811H88.9371L154.268 330.998H179.803V299.521C186.949 317.936 204.877 330.998 225.866 330.998H280.679C304.047 330.998 323.622 314.81 328.747 293.065L337.532 331H362.785L380.137 262.908H382.959L400.312 331H425.564L448 232.52H428.25L428.255 232.518ZM301.78 302.795C296.144 308.415 288.652 311.508 280.684 311.508H225.872C217.902 311.508 210.409 308.412 204.776 302.795C199.143 297.177 196.038 289.703 196.038 281.758C196.038 273.813 199.143 266.338 204.776 260.72C210.412 255.1 217.905 252.007 225.872 252.007H280.684C288.654 252.007 296.147 255.103 301.78 260.72C307.417 266.341 310.518 273.813 310.518 281.758C310.518 289.703 307.414 297.177 301.78 302.795Z" fill="white"/>
<defs>
<linearGradient id="paint0_linear_611_6913" x1="220.721" y1="252.004" x2="220.721" y2="311.511" gradientUnits="userSpaceOnUse">
<stop offset="0.37" stop-color="white" stop-opacity="0"/>
<stop offset="0.43" stop-color="white" stop-opacity="0.02"/>
<stop offset="0.51" stop-color="white" stop-opacity="0.08"/>
<stop offset="0.59" stop-color="white" stop-opacity="0.18"/>
<stop offset="0.69" stop-color="white" stop-opacity="0.31"/>
<stop offset="0.78" stop-color="white" stop-opacity="0.48"/>
<stop offset="0.88" stop-color="white" stop-opacity="0.7"/>
<stop offset="0.98" stop-color="white" stop-opacity="0.94"/>
<stop offset="1" stop-color="white"/>
</linearGradient>
<linearGradient id="paint1_linear_611_6913" x1="285.835" y1="311.511" x2="285.835" y2="252.004" gradientUnits="userSpaceOnUse">
<stop offset="0.37" stop-color="white" stop-opacity="0"/>
<stop offset="0.43" stop-color="white" stop-opacity="0.02"/>
<stop offset="0.51" stop-color="white" stop-opacity="0.08"/>
<stop offset="0.59" stop-color="white" stop-opacity="0.18"/>
<stop offset="0.69" stop-color="white" stop-opacity="0.31"/>
<stop offset="0.78" stop-color="white" stop-opacity="0.48"/>
<stop offset="0.88" stop-color="white" stop-opacity="0.7"/>
<stop offset="0.98" stop-color="white" stop-opacity="0.94"/>
<stop offset="1" stop-color="white"/>
</linearGradient>
</defs>
</svg>
