<svg width="55" height="40" viewBox="0 0 55 40" fill="none" xmlns="http://www.w3.org/2000/svg">
<path d="M32.7247 40H21.8739C9.79416 40 0 31.0449 0 20C0 8.95512 9.79416 0 21.8739 0H32.7247C44.8044 0 54.5985 8.95512 54.5985 20C54.5985 31.0449 44.8044 40 32.7247 40Z" fill="#2369F5"/>
<path d="M23.3283 27.5977L16.2497 36.0294V26.7224C16.2497 25.8695 16.9478 25.1737 17.8036 25.1737H21.7745C22.6302 25.1737 23.3283 25.8695 23.3283 26.7224V27.5977Z" fill="white"/>
<path d="M30.7072 19.6001C30.7072 21.1263 29.4686 22.3608 27.9373 22.3608C26.9915 22.3608 25.0999 22.3533 25.0999 22.3533V16.8619C25.0999 16.8619 26.4135 16.8469 27.9448 16.8469C29.4686 16.8394 30.7072 18.0739 30.7072 19.6001Z" fill="white"/>
<path d="M32.4863 19.5999C32.4863 18.0737 33.7249 16.8393 35.2562 16.8393C36.202 16.8393 38.0936 16.8467 38.0936 16.8467V22.3381C38.0936 22.3381 36.78 22.3531 35.2487 22.3531C33.7174 22.3531 32.4863 21.1261 32.4863 19.5999Z" fill="white"/>
<path d="M20.3934 22.3457H19.3274C17.8036 22.3457 16.5726 21.1187 16.5726 19.6C16.5726 18.0813 17.8036 16.8543 19.3274 16.8543H20.3934C21.9172 16.8543 23.1482 18.0813 23.1482 19.6C23.1482 21.1187 21.9172 22.3457 20.3934 22.3457Z" fill="white"/>
<path d="M35.5414 7.40527H19.0572C12.3014 7.40527 6.82168 12.8668 6.82168 19.6001C6.82168 25.3683 10.8451 30.2013 16.2498 31.4732V27.089C13.2097 25.9519 11.0328 23.0266 11.0328 19.6001C11.0328 15.1935 14.6284 11.6024 19.0572 11.6024H35.5339C39.9552 11.6024 43.5583 15.186 43.5583 19.6001C43.5583 24.0067 39.9627 27.5978 35.5339 27.5978H35.2862V31.7949H35.5339C42.2897 31.7949 47.7694 26.3334 47.7694 19.6001C47.7694 12.8668 42.2972 7.40527 35.5414 7.40527Z" fill="white"/>
<path d="M23.3283 27.5977L19.8078 31.7949H35.2936L35.7065 27.5978L23.3283 27.5977Z" fill="url(#paint0_linear_235_56594)"/>
<defs>
<linearGradient id="paint0_linear_235_56594" x1="24.4919" y1="26.4372" x2="32.5523" y2="34.5246" gradientUnits="userSpaceOnUse">
<stop stop-color="#2369F5"/>
<stop offset="0.1119" stop-color="#4A84F7"/>
<stop offset="0.4" stop-color="#ABC6FB"/>
<stop offset="0.6012" stop-color="#E7EFFE"/>
<stop offset="0.6966" stop-color="white"/>
</linearGradient>
</defs>
</svg>
